<svg width="427" height="427" viewBox="0 0 427 427" fill="none" xmlns="http://www.w3.org/2000/svg">
<path d="M213.5 427C331.413 427 427 331.413 427 213.5C427 95.5872 331.413 0 213.5 0C95.5872 0 0 95.5872 0 213.5C0 331.413 95.5872 427 213.5 427Z" fill="url(#paint0_linear_2_2)"/>
<g filter="url(#filter0_ii_2_2)">
<mask id="mask0_2_2" style="mask-type:alpha" maskUnits="userSpaceOnUse" x="122" y="26" width="214" height="337">
<path fill-rule="evenodd" clip-rule="evenodd" d="M217.566 27.9644C219.502 33.2909 220.33 40.1051 219.385 42.9277C219.007 44.0555 218.679 45.5651 218.526 46.3172C218.463 46.6282 218.399 46.9361 218.287 47.2332C217.392 49.6133 213.41 56.8466 211.403 58.916C210.378 59.9733 209.54 61.0629 209.54 61.3361C209.54 61.6094 205.447 66.2794 200.443 71.715C191.82 81.0832 189.158 84.5897 188.615 85.3386C188.536 85.4462 188.464 85.5561 188.393 85.6682L185.553 90.1307C185.185 90.7095 184.774 91.2607 184.432 91.8554C183.638 93.2359 182.292 96.3298 182.292 101.443L182.846 106.187C182.949 107.061 183.127 107.924 183.381 108.766L184.335 111.939C184.695 113.136 185.204 114.284 185.849 115.356L187.873 118.716C189.52 121.451 192.048 124.909 193.492 126.398C196.183 129.175 205.373 135.569 205.867 135.008C206.019 134.836 205.497 133.124 204.708 131.203C199.063 117.461 199.507 108.755 206.263 100.806C212.502 93.4637 214.034 91.5613 215.2 89.7043C215.867 88.6418 216.784 87.3305 217.238 86.7883C219.972 83.5292 226.161 71.4941 228.519 64.851C230.572 59.067 230.661 44.3421 228.666 40.4054C228.104 39.2198 227.305 37.2551 227.068 36.6697C227.023 36.5566 226.976 36.4443 226.924 36.3342C226.75 35.9665 226.275 35.0333 225.5 34C224 32 219.269 26 217.913 26C217.14 26 217.046 26.5334 217.566 27.9644ZM247.674 74.6831C246.797 73.7624 246.402 75.7395 245.775 76.8458C245.717 76.9486 245.662 77.0526 245.608 77.1579C245.596 77.1819 245.583 77.2081 245.568 77.2364C245.102 78.1513 244.751 79.1328 244.227 80.0159C241.726 84.2286 232.946 90.3839 228.295 93.6078L226.52 94.9715L225.244 96.0234C225.05 96.1841 224.853 96.3383 224.652 96.4917C223.749 97.1821 220.999 99.337 219.017 101.443C214.089 106.679 210.879 114.638 211.947 118.5C212.5 120.5 212.5 120.5 213.447 122.5C214.912 125.595 218.614 128.789 222.792 132.133L224.599 133.28C225.077 133.584 225.639 133.036 225.347 132.55C225.323 132.51 225.304 132.467 225.291 132.423C225.062 131.658 224.761 131.053 224.441 130.445C224.11 129.817 223.826 129.165 223.61 128.489C223.231 127.301 222.904 125.952 222.898 123.607C222.879 117.297 224.317 114.508 228.946 111.868C230.108 111.205 231.709 110.022 232.444 109.466C232.712 109.263 232.983 109.066 233.261 108.879L233.694 108.587C234.207 108.241 234.697 107.864 235.159 107.454C236.277 106.464 238.492 104.475 239.947 103C243.933 98.963 246.891 93.4454 247.942 89.2966C249.002 85.1112 248.879 75.9816 247.746 74.7594C247.721 74.7331 247.697 74.7076 247.674 74.6831ZM123 155C123.5 157 124 158.5 124 158.5L124.664 160.741L125.876 164.328L127.063 167.502L128.271 171.483L129.484 175.459L130.206 177.414L131.474 181.065L132.664 185.659L136 198L136.5 200L138.003 205.161L139.271 211.053C139.271 211.053 140.357 214.951 140.842 218.073C144.066 238.786 143.985 270.356 140.611 308.332L139.534 320.452L142.348 324.483L145.447 328.5L147.447 331L149.447 333.5L152.149 337.326C152.149 337.326 159.076 346.697 160.647 348.506C161.106 349.035 162.301 350.726 163.303 352.264C164.304 353.802 166.664 356.847 168.547 359.03L171.971 363H204.155C230.97 363 237.947 363 237.947 363L239.947 360L241.447 357.5C242.464 356.443 243.578 353.811 245.084 351.65C246.591 349.489 247.469 347.985 247.947 347.5C248.427 347.015 250.407 343.656 251.947 341.5L254.947 337.5L258.447 333L268.595 320.22L268.22 318.5C268.22 318.5 267.425 310.617 268.22 310.617C268.475 310.617 269.28 310.78 269.947 311.5C270.614 312.22 272.482 313.236 274.161 313.236C278.419 313.236 280.785 310.795 281.298 305.872C281.693 302.094 281.553 301.782 277.486 297.335C271.854 291.175 271.291 289.461 273.576 285.424C275.397 282.206 281.745 276.587 281.745 276.587L284.177 274.603L288.947 271L292.016 268.679L295.447 266L297.947 264L299.402 262.598L314.724 250.376C314.724 250.376 320.869 244.639 323.679 240.674C324.72 239.205 326.018 237.485 326.561 236.854C328.668 234.407 334.02 222.316 334.947 217.906C337.41 206.195 332.618 191.517 327.633 182.471C327.458 182.154 327.276 181.852 327.069 181.555C325.905 179.882 321.415 173.887 314.551 170.278C313.501 169.726 312.47 169.134 311.403 168.616C306.531 166.247 297.963 165.417 289.5 169C289.5 169 281.898 172.714 280.898 173.052C279.564 173.5 278.955 174.153 279.017 173C279.455 172.153 279.727 171.096 279.887 170.491C280.017 170 281.284 165.828 282.005 164.075C284.342 158.381 285.357 155.686 285.916 153.685L286.465 151.72H262.556H238.649V168.215C238.649 186.945 238.166 185.769 245.851 185.769C249.661 185.769 250.812 186.133 252.254 187.79C253.943 189.73 254.011 190.516 253.986 207.652C253.96 225.587 253.5 229 251.5 229.5C251 230 244.965 230.295 236.574 230.295C223.59 230.295 220.572 229.785 219.053 227.327C218.726 226.799 218.454 217.909 218.446 207.571C218.432 185.241 218.12 185.999 227.498 185.59L233.393 185.333L233.613 168.527L233.832 151.72H177.916H122L123 155ZM308.524 186.23C312.531 188.283 316.59 192.85 319.034 198.055C323.017 206.539 320.676 218.46 313.039 228.589C309.128 233.776 304.617 238.153 304.617 238.153C304.617 238.153 303.225 239.135 302.194 240.335C301.163 241.536 299.809 242.518 299.809 242.518C299.809 242.518 297.163 244.188 294.554 246.229C291.945 248.269 288.988 250.528 287.984 251.249C286.979 251.969 285.748 252.966 285.246 253.464C284.744 253.962 283.061 255.224 281.504 256.267C279.948 257.311 278.017 259 276.324 260.382C274.017 262 273.017 263 273.017 263C273.017 263 272.517 263.5 269.568 266.091C267.582 267.835 265.923 269.583 265.5 269.583C264.654 269.583 263.549 254.104 264.098 249.939C264.288 248.499 264.663 242.998 264.93 237.716C265.551 225.437 266.908 217.199 268.31 217.199C268.897 217.199 269.375 217.728 269.375 218.373C269.375 220.306 272.851 223.917 275.319 224.546C282.988 226.503 287.239 218.541 282.738 210.652C280.041 205.923 279.921 198.266 282.474 193.73C284.54 190.058 286.508 188.5 288.434 187.516C291.008 185.5 303.685 183.751 308.524 186.23Z" fill="white"/>
</mask>
<g mask="url(#mask0_2_2)">
<path fill-rule="evenodd" clip-rule="evenodd" d="M217.566 27.9644C219.502 33.2909 220.33 40.1051 219.385 42.9277C219.007 44.0555 218.679 45.5651 218.526 46.3172C218.463 46.6282 218.399 46.9361 218.287 47.2332C217.392 49.6133 213.41 56.8466 211.403 58.916C210.378 59.9733 209.54 61.0629 209.54 61.3361C209.54 61.6094 205.447 66.2794 200.443 71.715C191.82 81.0832 189.158 84.5897 188.615 85.3386C188.536 85.4462 188.464 85.5561 188.393 85.6682L185.553 90.1307C185.185 90.7095 184.774 91.2607 184.432 91.8554C183.638 93.2359 182.292 96.3298 182.292 101.443L182.846 106.187C182.949 107.061 183.127 107.924 183.381 108.766L184.335 111.939C184.695 113.136 185.204 114.284 185.849 115.356L187.873 118.716C189.52 121.451 192.048 124.909 193.492 126.398C196.183 129.175 205.373 135.569 205.867 135.008C206.019 134.836 205.497 133.124 204.708 131.203C199.063 117.461 199.507 108.755 206.263 100.806C212.502 93.4637 214.034 91.5613 215.2 89.7043C215.867 88.6418 216.784 87.3305 217.238 86.7883C219.972 83.5292 226.161 71.4941 228.519 64.851C230.572 59.067 230.661 44.3421 228.666 40.4054C228.104 39.2198 227.305 37.2551 227.068 36.6697C227.023 36.5566 226.976 36.4443 226.924 36.3342C226.75 35.9665 226.275 35.0333 225.5 34C224 32 219.269 26 217.913 26C217.14 26 217.046 26.5334 217.566 27.9644ZM247.674 74.6831C246.797 73.7624 246.402 75.7395 245.775 76.8458C245.717 76.9486 245.662 77.0526 245.608 77.1579C245.596 77.1819 245.583 77.2081 245.568 77.2364C245.102 78.1513 244.751 79.1328 244.227 80.0159C241.726 84.2286 232.946 90.3839 228.295 93.6078L226.52 94.9715L225.244 96.0234C225.05 96.1841 224.853 96.3383 224.652 96.4917C223.749 97.1821 220.999 99.337 219.017 101.443C214.089 106.679 210.879 114.638 211.947 118.5C212.5 120.5 212.5 120.5 213.447 122.5C214.912 125.595 218.614 128.789 222.792 132.133L224.599 133.28C225.077 133.584 225.639 133.036 225.347 132.55C225.323 132.51 225.304 132.467 225.291 132.423C225.062 131.658 224.761 131.053 224.441 130.445C224.11 129.817 223.826 129.165 223.61 128.489C223.231 127.301 222.904 125.952 222.898 123.607C222.879 117.297 224.317 114.508 228.946 111.868C230.108 111.205 231.709 110.022 232.444 109.466C232.712 109.263 232.983 109.066 233.261 108.879L233.694 108.587C234.207 108.241 234.697 107.864 235.159 107.454C236.277 106.464 238.492 104.475 239.947 103C243.933 98.963 246.891 93.4454 247.942 89.2966C249.002 85.1112 248.879 75.9816 247.746 74.7594C247.721 74.7331 247.697 74.7076 247.674 74.6831ZM123 155C123.5 157 124 158.5 124 158.5L124.664 160.741L125.876 164.328L127.063 167.502L128.271 171.483L129.484 175.459L130.206 177.414L131.474 181.065L132.664 185.659L136 198L136.5 200L138.003 205.161L139.271 211.053C139.271 211.053 140.357 214.951 140.842 218.073C144.066 238.786 143.985 270.356 140.611 308.332L139.534 320.452L142.348 324.483L145.447 328.5L147.447 331L149.447 333.5L152.149 337.326C152.149 337.326 159.076 346.697 160.647 348.506C161.106 349.035 162.301 350.726 163.303 352.264C164.304 353.802 166.664 356.847 168.547 359.03L171.971 363H204.155C230.97 363 237.947 363 237.947 363L239.947 360L241.447 357.5C242.464 356.443 243.578 353.811 245.084 351.65C246.591 349.489 247.469 347.985 247.947 347.5C248.427 347.015 250.407 343.656 251.947 341.5L254.947 337.5L258.447 333L268.595 320.22L268.22 318.5C268.22 318.5 267.425 310.617 268.22 310.617C268.475 310.617 269.28 310.78 269.947 311.5C270.614 312.22 272.482 313.236 274.161 313.236C278.419 313.236 280.785 310.795 281.298 305.872C281.693 302.094 281.553 301.782 277.486 297.335C271.854 291.175 271.291 289.461 273.576 285.424C275.397 282.206 281.745 276.587 281.745 276.587L284.177 274.603L288.947 271L292.016 268.679L295.447 266L297.947 264L299.402 262.598L314.724 250.376C314.724 250.376 320.869 244.639 323.679 240.674C324.72 239.205 326.018 237.485 326.561 236.854C328.668 234.407 334.02 222.316 334.947 217.906C337.41 206.195 332.618 191.517 327.633 182.471C327.458 182.154 327.276 181.852 327.069 181.555C325.905 179.882 321.415 173.887 314.551 170.278C313.501 169.726 312.47 169.134 311.403 168.616C306.531 166.247 297.963 165.417 289.5 169C289.5 169 281.898 172.714 280.898 173.052C279.564 173.5 278.955 174.153 279.017 173C279.455 172.153 279.727 171.096 279.887 170.491C280.017 170 281.284 165.828 282.005 164.075C284.342 158.381 285.357 155.686 285.916 153.685L286.465 151.72H262.556H238.649V168.215C238.649 186.945 238.166 185.769 245.851 185.769C249.661 185.769 250.812 186.133 252.254 187.79C253.943 189.73 254.011 190.516 253.986 207.652C253.96 225.587 253.5 229 251.5 229.5C251 230 244.965 230.295 236.574 230.295C223.59 230.295 220.572 229.785 219.053 227.327C218.726 226.799 218.454 217.909 218.446 207.571C218.432 185.241 218.12 185.999 227.498 185.59L233.393 185.333L233.613 168.527L233.832 151.72H177.916H122L123 155ZM308.524 186.23C312.531 188.283 316.59 192.85 319.034 198.055C323.017 206.539 320.676 218.46 313.039 228.589C309.128 233.776 304.617 238.153 304.617 238.153C304.617 238.153 303.225 239.135 302.194 240.335C301.163 241.536 299.809 242.518 299.809 242.518C299.809 242.518 297.163 244.188 294.554 246.229C291.945 248.269 288.988 250.528 287.984 251.249C286.979 251.969 285.748 252.966 285.246 253.464C284.744 253.962 283.061 255.224 281.504 256.267C279.948 257.311 278.017 259 276.324 260.382C274.017 262 273.017 263 273.017 263C273.017 263 272.517 263.5 269.568 266.091C267.582 267.835 265.923 269.583 265.5 269.583C264.654 269.583 263.549 254.104 264.098 249.939C264.288 248.499 264.663 242.998 264.93 237.716C265.551 225.437 266.908 217.199 268.31 217.199C268.897 217.199 269.286 217.199 269.375 218.373C269.375 220.306 272.851 223.917 275.319 224.546C282.988 226.503 287.239 218.541 282.738 210.652C280.041 205.923 279.921 198.266 282.474 193.73C284.54 190.058 286.508 188.5 288.434 187.516C291.008 185.5 303.685 183.751 308.524 186.23Z" fill="white"/>
<path fill-rule="evenodd" clip-rule="evenodd" d="M217.566 27.9644C219.502 33.2909 220.33 40.1051 219.385 42.9277C219.007 44.0555 218.679 45.5651 218.526 46.3172C218.463 46.6282 218.399 46.9361 218.287 47.2332C217.392 49.6133 213.41 56.8466 211.403 58.916C210.378 59.9733 209.54 61.0629 209.54 61.3361C209.54 61.6094 205.447 66.2794 200.443 71.715C191.82 81.0832 189.158 84.5897 188.615 85.3386C188.536 85.4462 188.464 85.5561 188.393 85.6682L185.553 90.1307C185.185 90.7095 184.774 91.2607 184.432 91.8554C183.638 93.2359 182.292 96.3298 182.292 101.443L182.846 106.187C182.949 107.061 183.127 107.924 183.381 108.766L184.335 111.939C184.695 113.136 185.204 114.284 185.849 115.356L187.873 118.716C189.52 121.451 192.048 124.909 193.492 126.398C196.183 129.175 205.373 135.569 205.867 135.008C206.019 134.836 205.497 133.124 204.708 131.203C199.063 117.461 199.507 108.755 206.263 100.806C212.502 93.4637 214.034 91.5613 215.2 89.7043C215.867 88.6418 216.784 87.3305 217.238 86.7883C219.972 83.5292 226.161 71.4941 228.519 64.851C230.572 59.067 230.661 44.3421 228.666 40.4054C228.104 39.2198 227.305 37.2551 227.068 36.6697C227.023 36.5566 226.976 36.4443 226.924 36.3342C226.75 35.9665 226.275 35.0333 225.5 34C224 32 219.269 26 217.913 26C217.14 26 217.046 26.5334 217.566 27.9644ZM247.674 74.6831C246.797 73.7624 246.402 75.7395 245.775 76.8458C245.717 76.9486 245.662 77.0526 245.608 77.1579C245.596 77.1819 245.583 77.2081 245.568 77.2364C245.102 78.1513 244.751 79.1328 244.227 80.0159C241.726 84.2286 232.946 90.3839 228.295 93.6078L226.52 94.9715L225.244 96.0234C225.05 96.1841 224.853 96.3383 224.652 96.4917C223.749 97.1821 220.999 99.337 219.017 101.443C214.089 106.679 210.879 114.638 211.947 118.5C212.5 120.5 212.5 120.5 213.447 122.5C214.912 125.595 218.614 128.789 222.792 132.133L224.599 133.28C225.077 133.584 225.639 133.036 225.347 132.55C225.323 132.51 225.304 132.467 225.291 132.423C225.062 131.658 224.761 131.053 224.441 130.445C224.11 129.817 223.826 129.165 223.61 128.489C223.231 127.301 222.904 125.952 222.898 123.607C222.879 117.297 224.317 114.508 228.946 111.868C230.108 111.205 231.709 110.022 232.444 109.466C232.712 109.263 232.983 109.066 233.261 108.879L233.694 108.587C234.207 108.241 234.697 107.864 235.159 107.454C236.277 106.464 238.492 104.475 239.947 103C243.933 98.963 246.891 93.4454 247.942 89.2966C249.002 85.1112 248.879 75.9816 247.746 74.7594C247.721 74.7331 247.697 74.7076 247.674 74.6831ZM123 155C123.5 157 124 158.5 124 158.5L124.664 160.741L125.876 164.328L127.063 167.502L128.271 171.483L129.484 175.459L130.206 177.414L131.474 181.065L132.664 185.659L136 198L136.5 200L138.003 205.161L139.271 211.053C139.271 211.053 140.357 214.951 140.842 218.073C144.066 238.786 143.985 270.356 140.611 308.332L139.534 320.452L142.348 324.483L145.447 328.5L147.447 331L149.447 333.5L152.149 337.326C152.149 337.326 159.076 346.697 160.647 348.506C161.106 349.035 162.301 350.726 163.303 352.264C164.304 353.802 166.664 356.847 168.547 359.03L171.971 363H204.155C230.97 363 237.947 363 237.947 363L239.947 360L241.447 357.5C242.464 356.443 243.578 353.811 245.084 351.65C246.591 349.489 247.469 347.985 247.947 347.5C248.427 347.015 250.407 343.656 251.947 341.5L254.947 337.5L258.447 333L268.595 320.22L268.22 318.5C268.22 318.5 267.425 310.617 268.22 310.617C268.475 310.617 269.28 310.78 269.947 311.5C270.614 312.22 272.482 313.236 274.161 313.236C278.419 313.236 280.785 310.795 281.298 305.872C281.693 302.094 281.553 301.782 277.486 297.335C271.854 291.175 271.291 289.461 273.576 285.424C275.397 282.206 281.745 276.587 281.745 276.587L284.177 274.603L288.947 271L292.016 268.679L295.447 266L297.947 264L299.402 262.598L314.724 250.376C314.724 250.376 320.869 244.639 323.679 240.674C324.72 239.205 326.018 237.485 326.561 236.854C328.668 234.407 334.02 222.316 334.947 217.906C337.41 206.195 332.618 191.517 327.633 182.471C327.458 182.154 327.276 181.852 327.069 181.555C325.905 179.882 321.415 173.887 314.551 170.278C313.501 169.726 312.47 169.134 311.403 168.616C306.531 166.247 297.963 165.417 289.5 169C289.5 169 281.898 172.714 280.898 173.052C279.564 173.5 278.955 174.153 279.017 173C279.455 172.153 279.727 171.096 279.887 170.491C280.017 170 281.284 165.828 282.005 164.075C284.342 158.381 285.357 155.686 285.916 153.685L286.465 151.72H262.556H238.649V168.215C238.649 186.945 238.166 185.769 245.851 185.769C249.661 185.769 250.812 186.133 252.254 187.79C253.943 189.73 254.011 190.516 253.986 207.652C253.96 225.587 253.5 229 251.5 229.5C251 230 244.965 230.295 236.574 230.295C223.59 230.295 220.572 229.785 219.053 227.327C218.726 226.799 218.454 217.909 218.446 207.571C218.432 185.241 218.12 185.999 227.498 185.59L233.393 185.333L233.613 168.527L233.832 151.72H177.916H122L123 155ZM308.524 186.23C312.531 188.283 316.59 192.85 319.034 198.055C323.017 206.539 320.676 218.46 313.039 228.589C309.128 233.776 304.617 238.153 304.617 238.153C304.617 238.153 303.225 239.135 302.194 240.335C301.163 241.536 299.809 242.518 299.809 242.518C299.809 242.518 297.163 244.188 294.554 246.229C291.945 248.269 288.988 250.528 287.984 251.249C286.979 251.969 285.748 252.966 285.246 253.464C284.744 253.962 283.061 255.224 281.504 256.267C279.948 257.311 278.017 259 276.324 260.382C274.017 262 273.017 263 273.017 263C273.017 263 272.517 263.5 269.568 266.091C267.582 267.835 265.923 269.583 265.5 269.583C264.654 269.583 263.549 254.104 264.098 249.939C264.288 248.499 264.663 242.998 264.93 237.716C265.551 225.437 266.908 217.199 268.31 217.199C268.897 217.199 269.375 217.728 269.375 218.373C269.375 220.239 272.851 223.917 275.319 224.546C282.988 226.503 287.239 218.541 282.738 210.652C280.041 205.923 279.921 198.266 282.474 193.73C284.54 190.058 286.508 188.5 288.434 187.516C291.008 185.5 303.685 183.751 308.524 186.23Z" stroke="white" stroke-opacity="0.06" stroke-width="8"/>
</g>
</g>
<g filter="url(#filter1_i_2_2)">
<path d="M238.094 196.374L240.032 196.352L240.047 197.587L247.19 197.504L247.168 195.567L245.002 195.592L244.978 193.521L249.044 193.474L249.173 204.683L245.107 204.73L245.083 202.659L247.249 202.634L247.227 200.715L240.084 200.798L240.098 202.033L238.16 202.055L238.094 196.374ZM238.043 210.01C238.033 209.136 238.182 208.368 238.491 207.706C238.8 207.056 239.25 206.544 239.841 206.17C240.445 205.796 241.165 205.604 242.001 205.594C242.799 205.585 243.498 205.754 244.097 206.102C244.696 206.45 245.171 206.932 245.52 207.549C245.869 208.178 246.048 208.898 246.058 209.709C246.067 210.507 245.904 211.186 245.568 211.748C245.245 212.321 244.788 212.757 244.196 213.055C243.617 213.366 242.941 213.526 242.169 213.535L241.656 213.541L241.582 207.157L242.779 207.162L242.823 210.924C243.127 210.921 243.379 210.867 243.581 210.763C243.795 210.672 243.958 210.531 244.07 210.34C244.182 210.148 244.236 209.913 244.233 209.635C244.229 209.318 244.144 209.053 243.977 208.84C243.822 208.626 243.592 208.464 243.287 208.354C242.994 208.256 242.646 208.209 242.24 208.214C241.772 208.219 241.38 208.312 241.065 208.493C240.764 208.687 240.532 208.943 240.371 209.261C240.223 209.58 240.151 209.948 240.156 210.366C240.161 210.822 240.242 211.252 240.399 211.655C240.555 212.059 240.756 212.411 241 212.712L239.337 213.511C238.952 213.084 238.642 212.575 238.407 211.982C238.173 211.389 238.051 210.732 238.043 210.01ZM238.143 217.079C238.134 216.306 238.33 215.689 238.73 215.229C239.13 214.768 239.666 214.534 240.337 214.526C240.907 214.52 241.364 214.654 241.71 214.928C242.068 215.216 242.325 215.586 242.483 216.04C242.64 216.507 242.722 217 242.728 217.52C242.733 217.95 242.699 218.35 242.627 218.718C242.556 219.086 242.464 219.391 242.353 219.633L242.253 219.197L242.88 219.19C243.361 219.185 243.714 219.054 243.939 218.798C244.177 218.554 244.294 218.198 244.288 217.73C244.284 217.375 244.229 216.996 244.123 216.592C244.017 216.2 243.847 215.746 243.613 215.229L245.221 214.584C245.52 215.214 245.742 215.845 245.889 216.476C246.048 217.108 246.131 217.746 246.139 218.392C246.148 219.14 246.028 219.774 245.781 220.297C245.546 220.831 245.196 221.235 244.731 221.506C244.278 221.79 243.729 221.935 243.083 221.943L240.062 221.978L240.072 222.89L238.4 222.909L238.363 219.679L239.537 219.286L239.545 219.97C239.084 219.557 238.737 219.118 238.503 218.652C238.27 218.186 238.15 217.661 238.143 217.079ZM239.617 218.031C239.62 218.297 239.687 218.562 239.816 218.826C239.946 219.091 240.158 219.342 240.452 219.579L239.745 219.226L241.588 219.205L241.193 219.571C241.292 219.392 241.372 219.182 241.433 218.941C241.494 218.712 241.522 218.458 241.519 218.18C241.516 217.876 241.436 217.604 241.282 217.365C241.14 217.139 240.891 217.028 240.537 217.032C240.246 217.035 240.018 217.12 239.856 217.287C239.693 217.466 239.614 217.714 239.617 218.031ZM226.069 194.218L235.044 189.896L235.033 188.908L236.99 188.885L237.055 194.509L235.098 194.532L235.083 193.24L229.58 195.488L235.133 197.533L235.118 196.28L237.075 196.257L237.132 201.178L235.175 201.2L235.163 200.212L226.095 196.46L226.069 194.218ZM226.164 202.478L228.102 202.455L228.114 203.538L235.201 203.456L235.188 202.374L237.145 202.351L237.214 208.317C237.232 209.836 236.985 210.998 236.475 211.802C235.978 212.619 235.14 213.034 233.962 213.047C232.772 213.061 231.9 212.691 231.346 211.937C230.806 211.184 230.527 210.091 230.511 208.66L230.497 207.463L232.435 207.441L232.443 208.201C232.449 208.695 232.574 209.073 232.818 209.336C233.061 209.612 233.418 209.747 233.886 209.742C234.342 209.737 234.683 209.606 234.908 209.35C235.146 209.094 235.262 208.725 235.256 208.244L235.238 206.686L228.152 206.768L228.166 207.984L226.228 208.006L226.164 202.478ZM226.302 214.464L228.24 214.441L228.253 215.543L235.339 215.461L235.327 214.36L237.284 214.337L237.339 219.144L230.439 223.841L235.435 223.783L235.421 222.529L237.378 222.506L237.429 226.971L235.472 226.994L235.46 225.911L226.435 226.015L226.398 222.804L234.071 217.547L228.277 217.614L228.291 218.868L226.353 218.89L226.302 214.464Z" fill="white"/>
</g>
<defs>
<filter id="filter0_ii_2_2" x="122" y="26" width="213.614" height="341" filterUnits="userSpaceOnUse" color-interpolation-filters="sRGB">
<feFlood flood-opacity="0" result="BackgroundImageFix"/>
<feBlend mode="normal" in="SourceGraphic" in2="BackgroundImageFix" result="shape"/>
<feColorMatrix in="SourceAlpha" type="matrix" values="0 0 0 0 0 0 0 0 0 0 0 0 0 0 0 0 0 0 127 0" result="hardAlpha"/>
<feOffset dy="4"/>
<feGaussianBlur stdDeviation="2"/>
<feComposite in2="hardAlpha" operator="arithmetic" k2="-1" k3="1"/>
<feColorMatrix type="matrix" values="0 0 0 0 0 0 0 0 0 0 0 0 0 0 0 0 0 0 0.25 0"/>
<feBlend mode="normal" in2="shape" result="effect1_innerShadow_2_2"/>
<feColorMatrix in="SourceAlpha" type="matrix" values="0 0 0 0 0 0 0 0 0 0 0 0 0 0 0 0 0 0 127 0" result="hardAlpha"/>
<feOffset dy="4"/>
<feGaussianBlur stdDeviation="2"/>
<feComposite in2="hardAlpha" operator="arithmetic" k2="-1" k3="1"/>
<feColorMatrix type="matrix" values="0 0 0 0 0 0 0 0 0 0 0 0 0 0 0 0 0 0 0.25 0"/>
<feBlend mode="normal" in2="effect1_innerShadow_2_2" result="effect2_innerShadow_2_2"/>
</filter>
<filter id="filter1_i_2_2" x="226.069" y="188.885" width="23.104" height="42.109" filterUnits="userSpaceOnUse" color-interpolation-filters="sRGB">
<feFlood flood-opacity="0" result="BackgroundImageFix"/>
<feBlend mode="normal" in="SourceGraphic" in2="BackgroundImageFix" result="shape"/>
<feColorMatrix in="SourceAlpha" type="matrix" values="0 0 0 0 0 0 0 0 0 0 0 0 0 0 0 0 0 0 127 0" result="hardAlpha"/>
<feOffset dy="4"/>
<feGaussianBlur stdDeviation="2"/>
<feComposite in2="hardAlpha" operator="arithmetic" k2="-1" k3="1"/>
<feColorMatrix type="matrix" values="0 0 0 0 0 0 0 0 0 0 0 0 0 0 0 0 0 0 0.25 0"/>
<feBlend mode="normal" in2="shape" result="effect1_innerShadow_2_2"/>
</filter>
<linearGradient id="paint0_linear_2_2" x1="349.5" y1="375.5" x2="68.5" y2="24.5" gradientUnits="userSpaceOnUse">
<stop offset="0.427083" stop-color="#058DD9"/>
<stop offset="1" stop-color="#91D7FF"/>
</linearGradient>
</defs>
</svg>
